<?xml version="1.0" encoding="UTF-8"?>
<!DOCTYPE svg PUBLIC "-//W3C//DTD SVG 1.1//EN" "http://www.w3.org/Graphics/SVG/1.1/DTD/svg11.dtd">
<svg version="1.1" xmlns="http://www.w3.org/2000/svg" xmlns:xlink="http://www.w3.org/1999/xlink" x="0" y="0" width="480.579" height="620.721" viewBox="0, 0, 480.579, 620.721">
  <g id="layer1">
    <path d="M41.134,244.456 L47.563,283.668 L57.311,285.333 L71.329,306.249 L65.154,312.194 C65.154,312.194 67.536,321.226 69.193,321.924 C70.843,322.657 77.036,325.498 77.036,325.498 C77.036,325.498 84.163,338.339 86.537,341.906 C88.918,345.449 94.618,354.969 94.618,354.969 C94.618,354.969 95.34,362.105 97.941,362.812 C100.554,363.519 113.16,365.193 117.437,363.757 C121.716,362.336 142.395,354.731 143.107,353.302 C143.803,351.873 154.029,334.777 159.022,330.253 C164.004,325.736 174.238,312.899 174.009,309.337 C173.752,305.774 174.467,280.1 174.467,280.1 L183.491,281.064 L190.399,272.975 L196.097,262.046 L193.239,242.806 L178.762,217.364 C178.762,217.364 126.232,185.274 124.794,184.578 C123.375,183.862 51.834,212.609 51.834,212.609 L41.134,244.456" fill="#F7CEB2" id="path191668"/>
    <path d="M54.216,284.388 C54.216,284.388 38.539,292.717 29.514,288.183 C29.514,288.183 40.912,279.389 41.389,265.618 C41.389,265.618 23.323,268.951 20.473,273.926 C20.473,273.926 19.987,258.243 34.252,245.169 C34.252,245.169 22.599,243.502 10.496,256.567 C10.496,256.567 14.061,238.289 33.547,226.171 C33.547,226.171 19.987,228.294 10.708,241.606 C10.708,241.606 12.156,221.414 29.383,210.943 C29.383,210.943 10.241,214.859 1.931,209.173 C1.931,209.173 33.424,204.292 42.103,186.948 C42.103,186.948 29.031,186.948 19.987,195.616 C19.987,195.616 19.864,187.188 29.629,181.124 C39.351,175.063 59.561,170.909 59.561,170.909 C59.561,170.909 39.131,163.184 37.224,150.946 C37.224,150.946 52.549,166.867 66.574,161.998 C66.574,161.998 44.467,154.023 39.351,142.034 C39.351,142.034 50.413,149.756 64.562,147.976 C78.694,146.188 96.266,148.796 104.964,152.249 C104.964,152.249 97.59,142.385 79.172,140.838 C79.172,140.838 90.576,133.473 104.964,138.101 C119.334,142.741 125.985,148.567 128.842,149.274 C128.842,149.274 121.601,139.173 122.184,132.523 C122.184,132.523 127.892,138.581 128.949,140.128 C130.035,141.663 141.802,151.413 149.52,152.6 C157.239,153.793 169.712,160.687 175.288,168.646 C180.898,176.598 184.577,187.426 184.577,187.426 C184.577,187.426 195.499,194.422 199.423,212.373 C203.349,230.332 200.147,236.737 198.711,242.911 C197.278,249.097 195.135,255.509 195.135,255.509 C195.135,255.509 196.221,261.931 195.499,263.484 C194.801,265.019 191.325,272.623 191.325,272.623 L189.789,274.889 L187.761,286.162 L189.084,298.758 L183.262,290.677 L182.194,290.564 L179.946,304.82 L178.517,303.037 L174.009,294.481 L174.591,280.942 L181.479,281.883 L188.484,276.309 L193.618,265.972 L194.801,261.331 L191.572,247.904 L183.615,236.508 L180.536,234.232 L174.114,235.434 L166.749,251.354 L166.026,253.974 C166.026,253.974 170.321,274.529 166.616,282.838 C166.616,282.838 165.206,258.243 157.725,251.114 C157.725,251.114 156.287,258.948 153.906,262.514 C153.906,262.514 155.582,230.906 147.739,219.022 C147.739,219.022 148.331,241.376 141.193,250.402 C141.193,250.402 140.831,219.871 131.226,212.373 C131.226,212.373 132.169,234.954 113.627,245.887 C113.627,245.887 121.716,229.01 116.001,212.848 C116.001,212.848 107.471,247.078 77.151,254.926 C77.151,254.926 93.082,238.873 92.482,223.655 C92.482,223.655 69.776,242.911 63.371,263.836 C63.371,263.836 61.211,244.933 72.043,226.171 C72.043,226.171 61.59,230.203 50.661,260.377 C50.661,260.377 46.479,249.562 54.075,233.296 C54.075,233.296 45.172,240.176 43.762,248.257 L49.001,268.334 L48.253,274.756 L54.216,284.388" fill="#866839" id="path191670"/>
    <path d="M115.063,287.945 C115.063,287.945 106.491,288.412 105.776,287.231 C105.071,286.049 104.364,284.143 103.879,282.714 C103.412,281.3 100.554,268.951 106.491,266.313 C112.436,263.713 123.606,261.331 125.766,261.331 C127.892,261.331 131.226,261.808 132.426,262.282 C133.607,262.751 134.799,265.37 134.799,267.989 C134.799,270.601 134.552,282.961 115.063,287.945" fill="#D9D8CE" id="path191672"/>
    <path d="M94.618,336.438 L100.316,341.18 L114.581,338.092 L129.073,332.163 L135.264,326.688 L139.296,321.457 L138.591,318.856 L129.073,315.988 L121.487,324.314 L94.618,336.438" fill="#FFFFFE" id="path191674"/>
    <path d="M173.507,298.4 L175.888,297.929 L179.946,306.494 L185.644,319.323 C185.644,319.323 157.584,344.994 144.757,349.985 L152.846,337.389 L160.221,328.833 C160.221,328.833 174.238,314.099 174.238,311.947 C174.238,309.813 173.507,298.4 173.507,298.4" fill="#E7B598" id="path191676"/>
    <path d="M70.622,322.162 C70.622,322.162 78.456,322.162 81.066,319.799 C83.687,317.409 94.856,316.464 95.085,318.129 C95.34,319.799 86.289,331.205 82.991,329.062 C79.639,326.926 70.622,322.162 70.622,322.162" fill="#E7B598" id="path191678"/>
    <path d="M121.601,564.228 L116.608,607.719 C116.608,607.719 82.725,615.905 81.313,614.493 C79.894,613.066 76.665,583.829 76.665,583.829 L78.808,549.62 L61.714,531.421 C61.714,531.421 21.769,486.866 27.478,470.476 C33.193,454.059 56.377,406.663 74.196,389.188 L75.246,386.699 L111.246,365.306 L114.827,364.241 C114.827,364.241 117.315,373.151 117.315,375.284 C117.315,377.429 118.027,382.078 118.027,382.078 C118.027,382.078 112.312,421.278 120.877,446.596 C120.877,446.596 133.695,395.248 140.481,383.135 C147.262,371.015 168.292,345.697 177.555,336.074 C186.834,326.448 193.961,321.809 195.392,322.533 C196.804,323.238 200.737,330.365 200.737,330.365 C200.737,330.365 213.926,313.244 216.403,313.244 C218.917,313.244 227.827,315.052 227.827,315.052 L233.175,310.413 L243.152,314.33 C243.152,314.33 288.776,283.312 303.392,259.777 C303.392,259.777 300.544,272.623 300.906,279.044 C301.254,285.455 302.325,319.323 309.819,328.938 C317.302,338.572 334.054,348.556 334.054,348.556 L348.669,342.858 L365.784,335.368 C365.784,335.368 364.354,377.429 352.941,393.464 C341.542,409.511 325.498,421.633 313.031,417.363 C300.544,413.075 297.006,415.211 297.006,415.211 L286.993,415.211 L270.259,409.511 C270.259,409.511 252.791,413.428 247.774,417.363 C247.774,417.363 228.551,450.159 218.567,513.251 C218.567,513.251 226.389,523.953 226.389,527.514 C226.389,531.08 224.977,535.698 224.977,535.698 C224.977,535.698 247.774,567.794 249.221,573.14 C250.65,578.486 258.825,589.175 254.567,591.68 C250.279,594.179 198.585,638.733 135.857,610.224 L121.601,564.228" fill="#00557E" id="path191680"/>
    <path d="M130.035,409.408 L115.77,402.986 L117.191,388.235 L118.151,380.154 L114.827,364.241 L128.13,360.2 L143.593,352.595 L147.148,349.031 L158.554,342.133 L179.691,325.974 L188.484,316.711 L192.516,323.593 L181.136,331.67 L162.823,352.121 L147.377,372.074 L138.821,386.816 L130.035,409.408" fill="#B8D1E2" id="path191682"/>
    <path d="M117.437,387.281 L119.811,392.999 L116.001,405.594 L116.977,424.844 L118.365,437.669 L120.754,445.766 L129.311,412.246 L129.549,407.006 L127.892,394.886 L134.074,385.147 L128.13,377.068 L123.606,370.653 L118.637,381.104 L117.437,387.281" fill="#3E7EB4" id="path191684"/>
    <path d="M86.139,514.531 L83.449,508.434 C83.449,508.434 70.976,508.617 69.538,510.401 C68.126,512.184 62.057,519.663 62.304,522.751 C62.535,525.852 67.288,548.904 67.288,548.904 L64.686,547.467 C64.686,547.467 59.685,541.055 58.492,541.769 C57.311,542.482 56.111,546.993 56.587,549.847 C57.056,552.699 60.399,565.057 62.771,565.286 C65.154,565.531 68.241,565.295 71.329,564.104 C74.417,562.925 77.265,561.971 77.265,561.971 C77.265,561.971 82.444,523.334 86.139,514.531" fill="#E7B598" id="path191686"/>
    <path d="M129.311,516.35 C129.311,519.224 126.973,521.57 124.099,521.57 C121.196,521.57 118.867,519.224 118.867,516.35 C118.867,513.455 121.196,511.108 124.099,511.108 C126.973,511.108 129.311,513.455 129.311,516.35" fill="#909190" id="path191688"/>
    <path d="M132.637,463.994 C132.637,466.884 130.299,469.226 127.414,469.226 C124.539,469.226 122.184,466.884 122.184,463.994 C122.184,461.099 124.539,458.778 127.414,458.778 C130.299,458.778 132.637,461.099 132.637,463.994" fill="#909190" id="path191690"/>
    <path d="M300.18,264.656 L314.921,241.376 C314.921,241.376 304.459,223.769 307.787,208.094 C311.128,192.416 326.325,130.153 326.325,130.153 L322.041,85.466 C322.041,85.466 298.777,27.476 303.037,19.871 C307.316,12.269 317.781,6.089 321.574,5.141 C325.382,4.192 341.542,5.141 349.147,15.603 C356.762,26.047 365.306,43.168 367.204,59.803 C369.118,76.439 374.344,94.499 380.057,102.579 C385.731,110.662 395.715,124.447 395.715,124.447 C395.715,124.447 433.277,130.153 443.747,134.422 C454.2,138.699 469.41,148.207 469.41,154.865 C469.41,161.512 463.693,173.874 463.693,173.874 C463.693,173.874 482.235,189.566 478.423,193.833 C474.63,198.116 467.027,211.419 467.027,211.419 C467.027,211.419 479.392,231.858 476.068,235.661 C472.723,239.471 465.141,250.402 465.141,250.402 C465.141,250.402 478.187,278.444 471.534,284.626 C464.874,290.801 430.886,310.773 420.919,315.528 C410.94,320.274 379.078,329.3 379.078,329.3 L363.861,336.438 L335.368,347.834 C335.368,347.834 310.157,337.856 305.43,317.409 C300.667,296.986 300.18,264.656 300.18,264.656" fill="#F7CEB2" id="path191692"/>
    <path d="M264.902,368.158 C264.902,368.158 314.443,355.683 317.302,354.256 C320.143,352.833 342.249,345.697 346.521,343.563 C350.814,341.413 365.784,335.368 365.784,335.368 C365.784,335.368 364.725,372.787 355.427,388.835 C346.174,404.872 328.356,421.278 313.031,417.363 C297.694,413.428 253.491,396.688 264.902,368.158" fill="#004263" id="path191694"/>
    <path d="M335.368,347.834 C335.368,347.834 309.69,339.751 303.992,313.139 C298.294,286.524 301.151,270.363 301.151,270.363 C301.151,270.363 294.482,283.668 290.22,295.081 C285.924,306.494 282.609,324.545 280.693,327.879 C278.797,331.205 262.168,376.361 262.168,376.361 C262.168,376.361 324.907,353.549 335.368,347.834" fill="#75AED2" id="path191696"/>
    <path d="M325.86,82.625 C325.86,82.625 342.249,104.716 352.237,100.445 C362.22,96.151 365.784,76.194 365.784,76.194 C365.784,76.194 367.911,109.706 387.169,121.113 C387.169,121.113 364.354,113.979 360.068,119.686 C355.798,125.392 335.827,158.902 335.827,158.902 C335.827,158.902 335.827,108.995 325.86,82.625" fill="#E7B598" id="path191698"/>
    <path d="M334.417,113.979 C334.417,113.979 332.979,138.937 330.139,144.643 C327.279,150.346 310.157,207.389 313.031,217.364 C315.872,227.351 318.722,255.86 337.961,269.411 C337.961,269.411 327.279,233.049 339.401,224.484 C339.401,224.484 335.827,212.373 342.964,201.684 C342.964,201.684 325.86,184.578 330.139,172.447 C334.417,160.327 345.118,139.653 345.118,139.653 L334.417,113.979" fill="#E7B598" id="path191700"/>
    <path d="M341.542,227.351 C341.542,227.351 337.266,234.479 339.401,248.733 C341.542,262.998 347.947,305.774 353.653,307.201 C359.353,308.63 402.853,313.614 410.702,312.194 C418.536,310.773 435.66,300.779 444.214,292.224 C444.214,292.224 402.853,296.512 387.169,294.367 C371.471,292.224 365.07,287.945 365.07,280.1 C365.07,272.272 365.07,266.561 365.07,266.561 C365.07,266.561 347.261,257.291 352.941,238.749 C352.941,238.749 343.68,230.203 341.542,227.351" fill="#E7B598" id="path191702"/>
    <path d="M345.804,195.256 C345.804,195.256 333.692,183.862 335.115,176.017 C336.561,168.172 361.489,123.961 366.508,123.254 C366.508,123.254 355.084,142.503 365.07,151.055 C375.047,159.611 414.259,164.609 418.536,164.609 C422.824,164.609 437.079,170.304 440.644,166.743 C444.214,163.184 446.331,172.447 439.918,174.586 C433.524,176.726 425.674,173.874 419.974,173.874 C414.259,173.878 364.354,168.172 357.932,176.726 C351.519,185.274 345.804,195.256 345.804,195.256" fill="#E7B598" id="path191704"/>
    <path d="M356.524,233.754 C356.524,233.754 340.123,224.484 342.249,217.364 C344.402,210.239 362.936,178.871 366.508,178.151 C370.054,177.44 375.047,177.44 375.047,177.44 C375.047,177.44 367.204,182.433 368.642,190.276 C370.054,198.121 377.895,208.809 390.017,210.239 C402.146,211.666 434.942,214.507 439.213,210.239 C443.507,205.951 448.494,211.666 442.082,214.507 C435.66,217.364 414.973,217.364 414.973,217.364 C414.973,217.364 380.764,218.786 374.344,221.653 C367.911,224.484 356.524,233.754 356.524,233.754" fill="#E7B598" id="path191706"/>
    <path d="M386.46,223.769 C386.46,223.769 363.643,234.479 362.22,238.042 C360.772,241.606 358.657,254.443 362.936,256.567 C367.204,258.719 367.911,262.282 374.344,262.282 C380.764,262.282 420.679,248.733 425.674,248.733 C425.674,248.733 396.429,252.299 392.162,253.726 C387.883,255.157 380.057,238.749 381.452,233.754 C382.899,228.779 386.46,223.769 386.46,223.769" fill="#E7B598" id="path191708"/>
    <path d="M371.471,267.989 C371.471,267.989 367.204,280.1 373.627,284.388 C380.057,288.667 401.432,292.946 414.259,291.508 C414.259,291.508 401.432,291.508 399.294,282.961 C397.161,274.406 395.017,263.713 402.853,260.855 L371.471,267.989" fill="#E7B598" id="path191710"/>
    <path d="M395.017,275.823 C395.017,275.823 414.973,262.282 420.679,260.855 C426.386,259.426 437.794,254.431 440.644,256.567 C443.507,258.719 445.642,264.419 448.494,262.282 C451.354,260.148 448.494,253.726 446.331,253.726 C444.214,253.726 435.66,249.448 432.079,250.869 C428.52,252.299 395.715,263.713 395.715,263.713 L395.017,275.823" fill="#E7B598" id="path191712"/>
    <path d="M395.017,316.464 C395.017,316.464 387.169,326.448 374.344,323.593 L330.139,343.563 C330.139,343.563 299.477,337.856 300.18,282.245 L301.151,270.363 L303.392,259.777 C303.392,259.777 308.752,315.052 319.438,319.323 C330.139,323.593 344.402,307.201 344.402,307.201 C344.402,307.201 357.221,319.323 395.017,316.464" fill="#E7B598" id="path191714"/>
    <path d="M347.261,310.051 L342.249,292.224 C342.249,292.224 316.588,312.899 310.873,313.614 L317.992,324.314 L332.263,323.593 L347.261,310.051" fill="#E7B598" id="path191716"/>
    <path d="M322.296,255.86 L334.417,265.143 L337.961,269.411 L340.123,280.1 C340.123,280.1 328.699,295.786 323.707,299.353 C318.722,302.924 308.04,307.908 308.04,307.908 L306.604,299.353 C306.604,299.353 328.699,274.406 329.439,270.127 C330.139,265.848 322.296,255.86 322.296,255.86" fill="#E7B598" id="path191718"/>
    <path d="M120.877,285.273 C120.877,285.273 112.146,288.667 110.196,288.129 C108.219,287.589 106.809,285.633 106.809,282.774 C106.809,279.926 110.002,275.48 111.086,275.12 C112.146,274.756 129.442,266.917 130.695,267.277 C131.931,267.628 133.881,269.06 133.352,270.838 C132.823,272.623 132.823,281.707 120.877,285.273" fill="#FFFFFE" id="path191720"/>
    <path d="M116.07,327.341 C116.07,327.341 105.174,334.644 105.741,335.368 C106.262,336.074 108.757,338.384 110.707,338.384 C110.707,338.384 102.326,341.606 101.083,341.251 C99.838,340.88 94.856,337.316 95.402,336.611 C95.931,335.898 113.027,328.055 116.07,327.341" fill="#D9D8CE" id="path191722"/>
    <path d="M86.289,278.921 C86.289,278.921 100.316,277.492 103.65,284.636 L102.705,272.272 L92.949,271.318 L86.289,278.921" fill="#E7B598" id="path191724"/>
    <path d="M177.326,246.598 C177.326,246.598 187.074,256.34 183.491,262.751 C179.946,269.184 177.555,268.696 177.555,268.696 L174.238,262.514 L174.009,258.491 L177.326,246.598" fill="#E7B598" id="path191726"/>
    <path d="M111.853,501.489 C111.774,517.949 112.472,537.659 114.827,543.431 C118.365,552.224 130.847,608.793 134.799,611.632 C134.799,611.632 156.182,625.273 201.081,619.132 C237.461,614.143 260.256,588.824 260.256,588.824 C260.256,588.824 230.554,531.554 201.081,507.787 C201.081,507.787 225.42,534.449 238.166,557.816 C244.581,569.574 253.851,588.118 253.851,588.118 C253.851,588.118 218.567,616.627 189.675,617.349 C162.373,618.02 137.991,609.854 137.991,609.854 C131.102,596.071 115.063,543.431 114.581,524.887 C114.412,517.901 114.298,508.638 114.341,501.367" fill="#1A1919" id="path191728"/>
    <path d="M123.499,456.511 C123.499,456.511 142.271,421.633 171.142,405.241 C171.142,405.241 162.592,397.393 155.087,394.886 C155.087,394.886 176.434,383.99 182.194,384.918 C182.194,384.918 171.495,368.872 192.516,344.514 L185.061,351.757 C185.061,351.757 174.697,363.879 177.924,382.078 C177.924,382.078 149.908,392.336 146.179,394.183 C146.179,394.183 163.811,399.596 165.435,403.814 C165.435,403.814 139.764,420.566 123.499,456.511" fill="#1A1919" id="path191730"/>
    <path d="M114.096,463.693 C114.096,463.693 114.827,434.812 96.876,407.392 C96.876,407.392 107.831,399.448 111.889,399.534 C111.889,399.534 99.945,391.816 97.324,391.816 C97.324,391.816 107.664,368.934 111.967,366.374 L110.734,363.386 C110.734,363.386 98.402,385.516 94.811,392.788 C94.811,392.788 105.369,396.086 108.052,399.172 C108.052,399.172 96.416,405.048 94.299,407.87 C94.299,407.87 108.193,423.678 114.096,463.693" fill="#1A1919" id="path191732"/>
    <path d="M228.234,313.976 C222.703,312.335 216.253,310.933 214.269,312.468 C210.6,315.326 199.29,326.317 189.913,354.024 C189.913,354.024 206.938,315.326 218.353,314.911 C222.041,314.771 225.216,315.116 227.863,315.635 L228.234,313.976" fill="#1A1919" id="path191734"/>
    <path d="M197.526,497.566 C197.526,497.566 225.692,519.309 224.977,525.725 C224.256,532.147 223.187,533.214 223.187,533.214 L226.751,537.492 C226.751,537.492 229.267,526.076 227.094,521.808 C224.977,517.529 202.871,500.06 197.526,497.566" fill="#1A1919" id="path191736"/>
    <path d="M219.712,515.396 C219.712,515.396 227.175,453.901 249.802,416.287 L245.269,416.287 C245.269,416.287 220.357,478.661 217.136,513.172 L219.712,515.396" fill="#1A1919" id="path191738"/>
    <path d="M248.494,417.716 C248.494,417.716 220.577,411.877 213.441,385.428 C206.302,358.983 203.614,321.545 217.241,313.976 L220.806,313.634 C220.806,313.634 208.569,321.193 208.986,339.401 C209.381,357.605 212.857,382.676 217.048,390.23 C221.212,397.788 227.608,410.499 250.234,417.026 L248.494,417.716" fill="#1A1919" id="path191740"/>
    <path d="M229.618,323.238 C229.618,323.238 301.151,275.12 311.128,234.706 L315.872,242.806 C315.872,242.806 279.971,301.274 229.618,323.238" fill="#1A1919" id="path191742"/>
    <path d="M310.281,249.423 C310.281,249.423 285.9,304.979 283.579,323.099 C282.291,333.226 259.472,373.256 264.199,381.354 C276.337,402.155 295.206,421.04 337.961,412.008 C337.961,412.008 323.97,420.221 315.907,419.716 C302.889,418.897 282.457,413.844 264.542,392.893 C248.604,374.227 278.012,330.286 282.936,309.776 C288.846,285.273 307.942,250.126 307.942,250.126 L310.281,249.423" fill="#1A1919" id="path191744"/>
    <path d="M241.155,316.209 C241.155,316.209 235.864,311.666 232.054,314.242 C228.251,316.814 217.076,332.534 217.076,332.534 C217.076,332.534 225.463,314.092 231.137,310.985 C236.79,307.871 244.016,313.888 244.016,313.888" fill="#1A1919" id="path191746"/>
    <path d="M328.939,263.819 C328.939,263.819 307.899,242.364 306.639,220.7 C304.757,189.159 318.167,137.529 324.217,129.223 C324.217,129.223 319.772,97.183 320.777,88.689 C320.777,88.689 303.037,59.643 301.254,24.151 C300.789,14.624 305.535,5.971 315.157,1.327 C321.546,-1.737 334.757,0.738 343.042,6.356 C351.283,11.983 362.284,27.014 365.52,39.138 C368.756,51.256 374.792,88.113 374.792,88.113 C374.792,88.113 381.452,110.773 407.837,126.464 L392.081,122.669 C392.081,122.669 382.149,115.033 372.347,95.129 C367.603,85.544 366.127,51.326 359.089,37.873 C355.986,31.955 340.38,0.656 322.296,7.758 C307.213,13.663 304.459,23.743 306.604,30.564 C308.752,37.396 323.432,83.326 324.405,90.733 C325.329,98.128 329.477,131.053 327.727,133.79 C325.974,136.526 318.746,168.952 315.617,183.584 C312.493,198.2 301.68,227.615 328.939,263.819" fill="#1A1919" id="path191748"/>
    <path d="M398.381,315.883 C398.381,315.883 349.676,324.067 344.638,311.03 C339.619,297.993 338.006,266.12 333.006,243.633 C333.006,243.633 341.492,273.689 342.647,285.811 C343.774,297.929 348.309,309.354 351.292,310.64 C358.815,313.916 393.039,316.569 398.381,315.883" fill="#1A1919" id="path191750"/>
    <path d="M341.782,204.856 C341.782,204.856 324.943,187.814 327.067,174.989 C329.158,162.179 345.514,139.998 348.161,131.279 C350.814,122.576 360.307,109.556 370.406,113.274 C380.526,116.983 417.026,123.961 427.091,124.323 C437.175,124.691 463.393,139.381 466.648,145.233 C469.903,151.074 472.601,155.748 469.646,161.998 C466.693,168.226 467.741,176.362 467.741,176.362 L461.257,171.438 C461.257,171.438 469.275,159.108 466.376,152.793 C463.453,146.478 441.982,132.53 424.191,130.651 C406.378,128.771 370.389,118.792 365.617,120.667 C360.827,122.536 348.24,138.369 345.945,143.279 C343.669,148.175 326.891,173.758 332.387,183.92 C337.882,194.079 343.569,199.198 343.569,199.198 L341.782,204.856" fill="#1A1919" id="path191752"/>
    <path d="M454.207,165.656 C454.207,165.656 462.589,175.424 465.851,178.04 C469.134,180.661 477.169,187.858 475.089,191.171 C473.008,194.48 463.719,209.999 463.719,209.999 C463.719,209.999 477.077,229.115 474.279,233.383 C471.489,237.656 460.339,251.681 460.059,256.055 C460.059,256.055 464.031,251.204 467.512,249.016 C470.989,246.83 479.177,238.828 478.177,231.144 C477.199,223.468 470.599,214.154 470.599,214.154 C470.599,214.154 481.211,196.456 480.549,191.343 C479.887,186.213 465.66,173.294 465.66,173.294 C465.66,173.294 456.609,167.956 454.207,165.656" fill="#1A1919" id="path191754"/>
    <path d="M443.295,171.674 C443.295,171.674 437.522,178.689 432.465,178.499 C427.429,178.319 407.561,173.364 394.399,175.063 C381.238,176.773 366.075,169.531 360.041,177.838 C354.009,186.144 337.961,214.136 339.808,221.848 C341.64,229.558 355.472,239.471 355.472,239.471 L352.191,243.249 C352.191,243.249 336.799,227.668 336.816,218.054 C336.823,208.438 349.702,175.411 361.305,171.408 C372.913,167.384 422.409,171.856 426.036,173.898 C429.641,175.948 437.203,176.223 443.295,171.674" fill="#1A1919" id="path191756"/>
    <path d="M445.511,211.526 C445.511,211.526 437.317,215.926 434.389,215.893 C431.439,215.848 382.069,215.54 375.637,217.629 C369.206,219.712 351.9,234.504 350.734,238.411 C349.554,242.33 348.621,244.543 350.912,252.614 C353.188,260.677 357.591,268.891 363.111,269.437 C368.642,269.973 391.648,266.996 395.706,266.06 C399.763,265.108 432.836,252.474 436.584,252.403 C440.342,252.343 448.571,254.617 448.571,254.617 C448.571,254.617 438.523,247.966 428.091,251.407 C417.682,254.857 391.174,263.296 384.538,263.729 C377.895,264.172 362.539,268.244 358.224,257.519 C353.893,246.793 356.117,238.13 361.477,234.089 C366.799,230.068 378.223,221.478 387.39,221.143 C396.553,220.771 436.626,223.541 445.511,211.526" fill="#1A1919" id="path191758"/>
    <path d="M463.657,251.452 C463.657,251.452 472.312,276.961 468.456,282.714 C464.61,288.483 415.474,321.916 371.794,330.191 C371.794,330.191 362.096,336.699 371.256,334.531 C390.283,330.014 401.687,328.833 431.145,316.228 C463.798,302.272 478.573,286.779 477.021,277.966 C475.442,269.154 466.507,247.694 466.507,247.694 L463.657,251.452" fill="#1A1919" id="path191760"/>
    <path d="M361.596,267.534 C361.596,267.534 361.329,288.059 367.682,291.834 C374.006,295.618 395.317,298.715 409.466,298.132 C423.617,297.569 449.852,293.336 459.607,288.307 C459.607,288.307 424.119,294.993 403.132,294.358 C382.138,293.729 368.887,288.324 367.725,282.626 C366.596,276.926 367.101,268.072 367.101,268.072 L361.596,267.534" fill="#1A1919" id="path191762"/>
    <path d="M418.35,295.734 C418.35,295.734 423.131,303.487 426.986,304.237 C426.986,304.237 417.919,302.077 413.332,295.558" fill="#1A1919" id="path191764"/>
    <path d="M376.211,328.321 C376.211,328.321 282.75,369.781 264.066,371.596 L263.606,377.308 C263.606,377.308 364.425,341.851 384.09,328.424 L376.211,328.321" fill="#1A1919" id="path191766"/>
    <path d="M338.908,347.938 C338.908,347.938 307.873,340.651 303.799,302.722 C299.732,264.772 305.404,256.919 305.404,256.919 L301.616,259.929 C301.616,259.929 296.077,288.238 301.254,308.896 C306.435,329.546 308.314,337.672 336.765,350.709 L338.908,347.938" fill="#1A1919" id="path191768"/>
    <path d="M314.443,418.668 C314.443,418.668 361.489,415.809 364.832,334.531 L368.256,333.103 C368.256,333.103 372.913,416.287 314.443,418.668" fill="#1A1919" id="path191770"/>
    <path d="M111.967,366.374 C111.967,366.374 91.697,380.261 75.853,387.389 C75.853,387.389 70.498,407.36 73.35,440.51 C73.35,440.51 67.641,421.432 74.239,386.849 C74.239,386.849 98.047,372.436 110.196,363.879 L111.967,366.374" fill="#1A1919" id="path191772"/>
    <path d="M75.067,386.733 C75.067,386.733 31.164,434.812 26.164,477.131 C24.002,495.599 63.716,536.3 63.716,536.3 L64.431,533.214 C64.431,533.214 25.697,487.588 27.831,474.517 C29.974,461.452 57.056,407.906 75.191,390.599 L75.067,386.733" fill="#1A1919" id="path191774"/>
    <path d="M73.05,435.515 C73.05,435.515 68.364,467.621 86.175,514.668 C86.175,514.668 64.969,479.962 71.857,430.533 L73.05,435.515" fill="#1A1919" id="path191776"/>
    <path d="M120.525,559.233 L115.179,605.219 C106.967,610.561 81.72,614.39 80.944,609.5 C73.807,564.228 86.289,513.961 86.289,513.961 C86.289,513.961 78.553,530.126 76.322,557.816 C73.472,593.107 79.534,614.493 80.229,615.905 C80.944,617.349 113.503,613.931 118.365,609.854 C120.525,608.071 119.811,584.551 122.316,564.228 L120.525,559.233" fill="#1A1919" id="path191778"/>
    <path d="M80.001,499.814 C80.001,499.814 73.234,479.624 70.374,477.853 C67.536,476.058 54.216,474.041 51.72,474.393 C51.72,474.393 67.783,471.943 73.948,478.321 C77.265,481.769 78.456,493.411 78.456,493.411 L80.001,499.814" fill="#1A1919" id="path191780"/>
    <path d="M56.377,474.041 C56.377,474.041 45.296,480.815 43.162,478.681 C41.019,476.546 44.239,465.481 48.508,466.198 C52.794,466.904 62.771,475.46 62.771,475.46 L56.377,474.041" fill="#1A1919" id="path191782"/>
    <path d="M63.847,474.753 C63.847,474.753 59.561,459.776 54.585,453.354 C54.585,453.354 63.495,466.198 65.974,476.546 L63.847,474.753" fill="#1A1919" id="path191784"/>
    <path d="M180.174,331.918 C180.174,331.918 192.296,321.457 194.209,320.521 C194.209,320.521 197.209,319.745 200.147,324.791 C202.757,329.3 202.871,328.409 202.871,328.409 L200.737,332.163 C200.737,332.163 197.526,327.879 197.526,326.448 C197.526,325.031 193.961,323.362 191.572,325.031 C189.199,326.688 177.555,336.665 173.752,339.524 L180.174,331.918" fill="#1A1919" id="path191786"/>
    <path d="M342.266,292.612 C342.266,292.612 332.441,303.922 320.955,308.754 C320.955,308.754 340.123,295.408 340.607,286.138 L342.266,292.612" fill="#1A1919" id="path191788"/>
    <path d="M338.111,270.151 C338.111,270.151 340.069,285.359 326.805,295.874 C326.805,295.874 335.721,290.529 340.123,282.433 C341.437,279.997 338.111,270.151 338.111,270.151" fill="#1A1919" id="path191790"/>
    <path d="M335.854,298.046 C335.854,298.046 340.483,294.941 342.532,302.193 L341.861,290.564 L335.854,298.046" fill="#1A1919" id="path191792"/>
    <path d="M336.922,286.756 C336.922,286.756 338.394,285.174 340.035,287.195 C341.692,289.205 340.873,282.907 340.873,282.907 C340.873,282.907 338.297,282.397 336.922,286.756" fill="#1A1919" id="path191794"/>
    <path d="M112.684,493.051 C112.684,493.051 124.099,403.814 144.757,373.856 C165.435,343.918 180.051,331.794 183.615,330.365 L181.136,333.948 C181.136,333.948 154.751,361.029 140.831,385.976 C126.939,410.941 114.827,490.674 114.827,490.674 L112.684,493.051" fill="#1A1919" id="path191796"/>
    <path d="M121.23,446.596 C121.23,446.596 112.312,409.511 119.449,380.278 L116.977,381.354 C116.977,381.354 110.196,415.933 120.877,449.435 L121.23,446.596" fill="#1A1919" id="path191798"/>
    <path d="M117.677,385.271 L123.737,372.074 C123.737,372.074 130.847,385.271 137.991,388.481 L139.412,386.338 C139.412,386.338 126.939,378.496 123.375,368.872 L117.677,382.411 L117.677,385.271" fill="#1A1919" id="path191800"/>
    <path d="M147.607,348.309 C147.607,348.309 178.974,328.355 187.179,315.281 C187.179,315.281 188.263,313.244 190.399,316.464 C192.516,319.685 193.961,323.831 193.961,323.831 L191.456,323.945 C191.456,323.945 189.118,317.364 187.894,318.969 C180.651,328.355 161.88,341.906 145.841,351.168 L147.607,348.309" fill="#1A1919" id="path191802"/>
    <path d="M113.503,365.069 C113.503,365.069 117.677,379.925 117.315,384.191 L118.744,382.078 C118.744,382.078 117.437,368.279 115.284,365.42 C113.16,362.572 113.503,365.069 113.503,365.069" fill="#1A1919" id="path191804"/>
    <path d="M133.352,384.549 L127.29,393.464 L128.349,395.609 L135.487,385.976 L133.352,384.549" fill="#1A1919" id="path191806"/>
    <path d="M116.229,401.679 C116.229,401.679 118.027,391.321 119.811,390.978 C121.601,390.607 124.442,389.188 126.577,390.607 C128.721,392.045 130.847,409.16 130.847,409.16 L128.721,412.721 C128.721,412.721 128.016,393.826 125.889,392.769 C123.737,391.691 121.937,392.045 120.877,393.464 C119.811,394.886 116.608,404.165 116.229,416.999 C116.229,416.999 116.229,403.451 116.229,401.679" fill="#1A1919" id="path191808"/>
    <path d="M119.811,392.045 L117.315,384.191 L116.608,387.766 L119.106,394.183 L119.811,392.045" fill="#1A1919" id="path191810"/>
    <path d="M143.248,539.818 L142.446,535.595 C142.446,535.595 143.724,535.486 146.274,535.271 C148.815,535.046 187.787,530.793 196.071,527.692 C196.071,527.692 200.571,530.176 196.794,530.971 C193.011,531.766 151.798,540.043 143.248,539.818" fill="#003D5C" id="path191812"/>
    <path d="M121.487,464.188 C121.487,467.621 124.282,470.422 127.714,470.422 C131.154,470.422 133.952,467.621 133.952,464.188 C133.952,460.738 131.154,457.94 127.714,457.94 C124.282,457.94 121.487,460.738 121.487,464.188 z M123.842,463.604 C123.842,461.435 125.651,459.643 127.811,459.643 C130.009,459.643 131.781,461.435 131.781,463.604 C131.781,465.807 130.009,467.6 127.811,467.6 C125.651,467.6 123.842,465.807 123.842,463.604" fill="#1A1919" id="path191814"/>
    <path d="M117.677,516.665 C117.677,520.089 120.472,522.89 123.913,522.89 C127.354,522.89 130.159,520.089 130.159,516.665 C130.159,513.223 127.354,510.421 123.913,510.421 C120.472,510.421 117.677,513.223 117.677,516.665 z M120.039,516.103 C120.039,513.913 121.822,512.131 124.009,512.131 C126.206,512.131 127.997,513.913 127.997,516.103 C127.997,518.285 126.206,520.068 124.009,520.068 C121.822,520.068 120.039,518.285 120.039,516.103" fill="#1A1919" id="path191816"/>
    <path d="M98.047,541.055 L98.419,537.493 L83.449,535.698 L82.725,537.493 L98.047,541.055" fill="#003D5C" id="path191818"/>
    <path d="M312.557,415.809 C312.557,415.809 273.585,417.245 247.438,392.999 C247.438,392.999 271.209,421.994 314.443,418.668 L312.557,415.809" fill="#1A1919" id="path191820"/>
    <path d="M246,419.621 C246,419.621 259.311,410.589 275.014,411.058 L269.297,408.206 C269.297,408.206 251.197,412.494 245.269,416.287 L246,419.621" fill="#1A1919" id="path191822"/>
    <path d="M68.929,554.966 C68.929,554.966 62.19,525.009 64.114,520.385 C66.036,515.746 71.514,510.751 73.436,510.401 C75.36,510.041 81.887,507.738 83.82,509.527 L83.218,507.648 C83.218,507.648 75.36,506.84 69.238,510.401 C63.141,513.961 61.026,520.844 61.333,526.559 C61.661,532.261 66.988,551.756 68.929,554.966" fill="#1A1919" id="path191824"/>
    <path d="M67.536,549.973 C67.536,549.973 64.686,553.181 65.038,555.671 C65.038,555.671 63.592,551.034 67.164,548.173 L67.536,549.973" fill="#1A1919" id="path191826"/>
    <path d="M78.21,561.016 C78.21,561.016 66.097,566.362 63.592,564.583 C61.123,562.799 57.549,550.676 57.197,549.251 C56.835,547.837 57.549,543.198 59.323,543.198 C61.123,543.198 66.097,551.034 66.097,551.034 L67.164,548.172 C67.164,548.172 60.399,537.022 56.482,542.122 C51.472,548.632 59.835,565.162 62.057,566.842 C65.383,569.336 78.21,563.152 78.21,563.152 L78.21,561.016" fill="#1A1919" id="path191828"/>
    <path d="M84.684,280.633 C84.684,280.633 107.496,270.506 113.724,260.836 C119.942,251.204 132.461,242.542 142.271,239.471 C142.271,239.471 117.782,244.978 114.465,249.097 C114.465,249.097 93.109,270.118 87.013,272.272 C82.991,273.699 76.851,274.756 74.355,272.799 C74.355,272.799 79.894,281.002 84.684,280.633" fill="#1A1919" id="path191830"/>
    <path d="M102.619,269.323 C102.619,269.323 99.195,276.134 102.936,287.274 L104.938,285.723 C103.164,275.808 103.738,271.653 108.193,268.732 C115.063,264.206 120.877,264.419 134.578,262.548 L128.871,258.746 C128.871,258.746 105.829,256.171 102.619,269.323" fill="#1A1919" id="path191832"/>
    <path d="M58.987,290.371 C65.409,298.908 68.841,304.873 68.841,304.873 C68.655,305.844 63.495,310.908 63.847,313.976 C64.581,320.362 70.057,324.112 72.229,324.704 C74.417,325.284 82.567,327.446 84.004,331.655 C84.004,331.655 83.218,326.459 76.217,324.493 C69.193,322.516 66,314.585 68.012,312.699 C71.346,309.618 75.096,302.049 75.096,302.049 C75.096,302.049 66.6,292.029 61.131,287.99 C58.221,285.826 48.482,277.799 49.02,274.678 C49.549,271.544 49.725,267.77 49.725,267.77 C49.725,267.77 44.786,253.833 44.239,244.586 L42.703,247.781 C42.703,247.781 46.266,265.848 48.058,267.884 C48.058,267.884 45.782,276.519 47.308,278.099 C48.834,279.678 50.511,285.483 53.951,287.178 L58.987,290.371" fill="#1A1919" id="path191834"/>
    <path d="M78.298,326.114 C78.298,326.114 89.906,347.868 96.487,353.399 C96.487,353.399 95.807,360.926 99.699,362.124 C103.579,363.331 121.742,364.115 139.269,354.29 C139.269,354.29 149.203,339.77 151.922,337.001 C154.601,334.229 172.774,313.394 172.35,310.323 C171.954,307.263 173.252,279.521 173.252,279.521 L175.455,280.58 C175.455,280.58 174.626,300.187 176.169,306.046 C177.697,311.913 175.281,315.404 172.819,318.159 C170.374,320.928 156.244,334.61 154.946,336.823 C153.649,339.031 146.734,353.054 143.001,354.466 C139.279,355.861 118.665,368.917 103.783,367.115 C96.964,366.305 95.216,362.881 94.864,360.881 C94.397,358.029 93.461,354.643 93.461,354.643 C93.461,354.643 76.993,332.163 75.386,325.109 L78.298,326.114" fill="#1A1919" id="path191836"/>
    <path d="M138.184,316.321 C137.012,316.111 133.678,315.813 131.271,314.188 C128.871,312.564 123.375,311.718 123.375,311.718 L127.714,315.209 L121.001,323.893 C118.637,324.421 96.249,334.723 95.297,335.465 C94.371,336.198 87.666,333.474 87.666,333.474 C87.939,336.082 92.482,337.179 94.397,337.856 C96.337,338.527 99.716,342.256 99.716,342.256 C103.281,342.187 113.486,339.742 122.696,336.461 C131.904,333.189 136.517,326.3 139.076,323.636 C141.643,320.962 139.386,316.543 138.184,316.321 z M133.024,328.091 C131.569,329.926 118.134,336.179 113.407,337.228 C108.679,338.289 99.979,343.211 96.761,336.62 C96.761,336.62 113.486,328.091 116.317,327.793 C119.167,327.5 124.08,323.133 126.18,321.888 C128.316,320.664 129.673,317.789 130.864,317.999 C132.045,318.204 134.049,322.445 132.159,323.662 C132.159,323.662 137.331,319.004 137.833,320.435 C138.336,321.845 134.974,325.584 133.024,328.091" fill="#1A1919" id="path191838"/>
    <path d="M102.952,348.309 C102.952,348.309 111.641,342.311 128.349,347.296 C128.349,347.296 113.293,346.04 102.952,348.309" fill="#1A1919" id="path191840"/>
    <path d="M68.126,267.628 C68.126,267.628 72.157,279.768 79.479,282.928 C79.479,282.928 69.591,280.878 68.126,267.628" fill="#1A1919" id="path191842"/>
    <path d="M83.925,321.123 C83.925,321.123 94.864,316.736 93.461,320.311 C93.461,320.311 89.28,323.193 83.925,321.123" fill="#1A1919" id="path191844"/>
    <path d="M108.6,347.268 C108.6,347.268 101.841,349.563 100.747,351.53 C100.747,351.53 114.977,346.421 122.959,348.328 C122.959,348.328 113.732,345.299 108.6,347.268" fill="#1A1919" id="path191846"/>
    <path d="M101.964,277.966 C101.964,277.966 98.64,273.629 92.799,275.868 L102.619,268.636 C102.619,268.636 101.683,277.033 101.964,277.966" fill="#1A1919" id="path191848"/>
    <path d="M172.536,279.554 C172.536,279.554 178.781,284.669 182.741,283.243 C186.72,281.831 196.354,267.703 196.751,261.965 C197.121,256.229 189.084,234.401 179.981,233.42 C171.354,232.484 166.669,243.961 165.426,255.455 C165.426,255.455 172.8,239.073 176.002,236.746 C179.205,234.416 181.074,234.074 184.172,238.184 C187.277,242.274 195.834,258.686 193.311,264.303 C190.777,269.924 184.701,279.802 181.807,279.256 C178.905,278.709 172.536,279.554 172.536,279.554" fill="#1A1919" id="path191850"/>
    <path d="M174.741,272.533 C174.741,272.533 177.924,265.672 175.976,265.07 C174.036,264.481 171.257,261.781 171.831,259.372 C172.402,256.957 175.181,239.173 180.562,241.711 C180.562,241.711 176.479,245.276 175.817,250.093 C175.146,254.883 173.107,260.731 175.281,261.305 C177.467,261.898 180.969,269.06 174.741,272.533" fill="#1A1919" id="path191852"/>
    <path d="M175.314,249.641 C175.314,249.641 190.089,254.017 187.02,262.522 C187.02,262.522 185.458,252.14 174.997,252.519 L175.314,249.641" fill="#1A1919" id="path191854"/>
    <path d="M115.867,207.813 C115.867,207.813 124.663,226.295 114.465,244.818 C114.465,244.818 132.999,231.974 130.035,203.825 C130.035,203.825 141.917,219.269 141.662,247.078 C141.662,247.078 149.944,236.066 146.089,213.873 C146.089,213.873 157.239,230.741 154.275,261.481 C154.275,261.481 157.804,253.974 157.187,248.021 C157.187,248.021 165.064,253.745 166.926,281.212 C166.926,281.212 168.169,269.298 165.664,253.426 L166.157,251.362 C166.157,251.362 171.557,272.692 166.369,285.129 C166.369,285.129 165.531,264.206 158.289,252.438 C158.289,252.438 155.987,263.096 153.129,265.036 C153.129,265.036 155.801,241.923 148.603,221.724 C148.603,221.724 153.084,241.852 139.296,254.679 C139.296,254.679 143.946,235.784 132.823,213.8 C132.823,213.8 136.571,234.479 111.431,247.657 C111.431,247.657 120.004,235.008 115.717,215.936 C115.717,215.936 112.507,246.776 73.014,257.662 C73.014,257.662 88.442,245.823 91.856,225.224 C91.856,225.224 68.302,245.999 62.861,266.739 C62.861,266.739 58.671,243.721 71.267,226.912 C71.267,226.912 51.287,248.195 50.951,263.431 C50.951,263.431 44.503,250.638 52.785,235.359 C52.785,235.359 44.362,241.13 40.427,259.31 C40.427,259.31 40.427,239.347 56.278,231.136 C56.278,231.136 49.363,243.873 50.396,259.469 C50.396,259.469 55.001,231.989 76.427,222.395 C76.427,222.395 64.114,237.815 63.424,262.372 C63.424,262.372 75.624,228.198 97.352,219.676 C97.352,219.676 92.263,240.599 79.091,253.726 C79.091,253.726 106.076,246.845 115.867,207.813" fill="#1A1919" id="path191856"/>
    <path d="M193.337,255.352 C195.834,248.257 198.304,240.354 199.335,232.01 C200.781,220.301 196.116,195.299 183.915,187.708 C183.915,187.708 174.009,160.089 152.122,154.865 C136.721,151.179 127.097,141.703 122.661,133.394 C122.661,133.394 126.939,149.392 136.871,153.804 C136.871,153.804 128.349,151.273 124.425,148.109 C120.48,144.946 101.276,132.523 81.313,140.624 C81.313,140.624 106.967,140.838 109.155,155.96 C109.155,155.96 97.916,147.365 75.141,148.925 C57.787,150.112 49.989,148.511 40.189,142.657 C40.189,142.657 56.587,164.128 79.172,161.276 C79.172,161.276 52.549,172.207 37.702,152.086 C37.702,152.086 41.389,165.806 68.707,171.74 C68.707,171.74 27.645,172.486 20.359,194.696 C20.359,194.696 32.824,181.481 51.613,185.763 L43.762,187.188 C43.762,187.188 36.388,205.721 2.664,209.478 C2.664,209.478 22.316,216.007 41.407,203.289 C41.407,203.289 14.042,218.617 11.679,239.471 C11.679,239.471 19.309,225.646 39.562,224.114 C39.562,224.114 22.316,231.444 11.263,255.157 C11.263,255.157 20.711,241.13 38.76,244.693 C38.76,244.693 25.944,251.821 21.399,272.032 C21.399,272.032 33.733,262.848 44.467,263.484 C44.467,263.484 40.929,283.085 30.319,288.129 C30.319,288.129 42.967,290.969 52.099,282.774 L54.744,286.348 C54.744,286.348 38.698,294.005 28.209,288.622 C28.209,288.622 37.948,281.002 40.674,266.561 C40.674,266.561 22.123,269.677 18.806,278.197 C18.806,278.197 19.097,259.426 31.721,246.528 C31.721,246.528 18.744,245.349 8.265,260.988 C8.265,260.988 12.789,236.456 30.371,227.334 C30.371,227.334 16.17,233.146 9.377,247.359 C9.377,247.359 7.648,225.676 26.164,212.609 C26.164,212.609 9.06,216.661 -0,208.861 C-0,208.861 24.276,206.904 40.427,187.694 C40.427,187.694 23.507,191.298 19.361,197.973 C19.361,197.973 18.471,174.219 55.811,169.901 C55.811,169.901 36.615,163.158 35.955,147.725 C35.955,147.725 45.156,162.659 63.892,161.336 C63.892,161.336 46.082,158.084 37.393,139.786 C37.393,139.786 49.989,149.587 67.536,146.362 C89.854,142.267 103.791,151.867 103.791,151.867 C103.791,151.867 90.101,141.481 77.257,141.279 C77.257,141.279 97.007,124.211 126.471,147.731 C126.471,147.731 119.325,137.621 121.001,129.663 C121.001,129.663 133.157,146.062 149.901,150.378 C179.452,157.97 183.484,179.514 184.886,186.826 C184.886,186.826 192.375,189.125 198.973,204.202 C205.573,219.305 202.483,231.663 200.764,242.699 C200.314,245.495 197.289,251.379 194.616,258.136" fill="#1A1919" id="path191858"/>
    <path d="M190.858,270.838 C188.211,287.238 191.316,303.408 193.725,308.156 C193.725,308.156 183.643,299.737 182.794,291.041 C182.794,291.041 179.655,307.676 181.834,311.48 C181.834,311.48 171.9,299.017 173.295,286.438 L174.741,286.559 C174.741,286.559 175.404,294.841 179.452,302.208 C179.452,302.208 178.543,293.722 182.548,285.811 C182.548,285.811 182.494,291.326 189.675,298.4 C189.675,298.4 184.022,295.01 186.834,275.823" fill="#1A1919" id="path191860"/>
    <path d="M62.79,287.99 C62.79,287.99 55.194,280.614 54.966,270.875 C54.966,270.875 54.24,275.621 55.899,279.909 C55.899,279.909 49.487,276.573 48.315,272.306 L48.315,276.811 L55.194,287.038 L66.6,294.393 C66.6,294.393 65.409,290.371 62.79,287.99" fill="#1A1919" id="path191862"/>
    <path d="M134.083,265.996 C133.581,269.411 133.749,275.956 129.461,279.607 C124.432,283.895 117.384,288.455 108.193,287.743 C108.193,287.743 110.629,289.981 116.503,288.693 C122.387,287.407 129.435,284.195 131.745,281.707 C134.276,279.009 135.787,270.824 135.397,265.282 L134.083,265.996" fill="#1A1919" id="path191864"/>
    <path d="M114.174,258.35 C114.174,258.35 122.661,256.689 127.326,257.184 C127.326,257.184 122.432,255.808 114.827,256.886 L114.174,258.35" fill="#1A1919" id="path191866"/>
    <path d="M66.424,290.698 C66.424,290.698 74.805,298.865 75.096,302.049 L74.098,303.834 C74.098,303.834 73.181,298.751 66.424,290.698" fill="#1A1919" id="path191868"/>
    <path d="M186.587,317.893 C186.587,317.893 180.66,308.63 178.762,301.961 L177.326,300.779 C177.326,300.779 179.691,314.804 185.167,319.561 L186.587,317.893" fill="#1A1919" id="path191870"/>
    <path d="M131.226,270.838 C131.226,276.751 126.426,281.531 120.525,281.531 C114.615,281.531 109.824,276.751 109.824,270.838 C109.824,264.931 114.615,260.148 120.525,260.148 C126.426,260.148 131.226,264.931 131.226,270.838" fill="#1A1919" id="path191872"/>
    <path d="M125.025,270.725 C125.025,273.149 123.075,275.12 120.639,275.12 C118.206,275.12 116.229,273.149 116.229,270.725 C116.229,268.299 118.206,266.313 120.639,266.313 C123.075,266.313 125.025,268.299 125.025,270.725" fill="#866839" id="path191874"/>
    <path d="M127.166,267.164 C127.166,269.06 125.651,270.601 123.737,270.601 C121.822,270.601 120.287,269.06 120.287,267.164 C120.287,265.246 121.822,263.713 123.737,263.713 C125.651,263.713 127.166,265.246 127.166,267.164" fill="#FFFFFE" id="path191876"/>
  </g>
</svg>
